<svg width="168" height="72" viewBox="0 0 168 72" fill="none" xmlns="http://www.w3.org/2000/svg">
<path d="M17.2831 35.9025C19.0951 35.1921 20.7583 38.4717 18.6922 39.2817C15.7279 40.444 12.9087 41.9978 10.3868 43.9485C10.7309 45.0867 10.8495 46.2848 10.6745 47.5191C10.1179 51.4449 6.20082 56.5241 2.11865 53.1144C-2.27603 49.4442 0.842098 44.9042 5.32824 41.2568C4.20774 39.8427 2.82168 38.687 1.98029 37.0239C0.529693 34.1584 1.09644 29.6148 5.1731 29.9134C6.39719 30.0033 7.60734 31.0202 8.11423 32.1075C8.4699 32.8707 8.59999 34.3133 7.3509 34.2219C4.73304 34.0305 5.50849 37.0029 6.49838 38.1937C6.87478 38.6466 7.27329 39.0757 7.66609 39.5087C11.6791 37.5896 15.5599 36.5782 17.2831 35.9025ZM38.1081 31.1355C40.2739 33.1904 40.3925 36.2279 39.3838 38.8713C37.5284 43.7271 32.3497 50.1101 26.6655 50.0485C25.6853 50.0378 24.4294 48.8397 23.8283 47.7098C19.0974 55.0194 15.4842 63.1969 12.6995 71.3326C11.9848 73.4205 7.90283 70.1079 8.52645 68.2675C12.7713 55.7428 17.0138 43.2157 21.2589 30.691C21.9654 28.6055 26.056 31.9127 25.4315 33.756C24.8768 35.3935 24.3221 37.0303 23.7674 38.6678C25.563 36.3441 27.5365 34.1741 29.7536 32.2853C32.327 30.0926 35.2 28.3768 38.1081 31.1355ZM35.0053 36.3049C35.2318 35.7791 35.3171 35.1586 35.4168 34.5656C35.226 34.6849 35.0404 34.8116 34.865 34.9537C34.3951 35.291 33.9421 35.6699 33.5016 36.045C31.5681 37.692 29.8452 39.5798 28.254 41.5573C27.1784 42.8941 26.1557 44.2807 25.1731 45.7006C29.4642 45.2115 33.4754 39.8578 35.0053 36.3049ZM61.4533 36.0784C61.9848 36.9735 61.8233 38.0826 60.6894 38.1932C59.8335 38.2768 59.0229 37.6452 58.4204 36.9391C57.3409 36.9386 54.98 38.7249 54.3853 39.1812C53.2036 40.0874 52.1184 41.1184 51.1039 42.2081C48.8648 44.614 46.9829 47.3427 45.6077 50.332C44.6449 52.4247 40.7714 49.031 41.4352 47.2665C43.2294 42.4988 45.1619 37.7837 46.8954 32.9928C47.5229 31.2582 50.4434 33.2625 51.0337 35.0372C54.7194 32.2176 58.6605 31.3748 61.4533 36.0784ZM82.5476 36.7035C84.1466 35.3455 86.7659 37.818 85.258 39.0997C82.6368 41.3263 79.9032 43.4359 77.0547 45.3623C74.7607 46.9142 72.1522 48.814 69.3859 49.3733C66.2327 50.0108 63.229 47.0674 63.1511 43.9335C63.0619 40.3421 65.7592 36.2419 67.5013 33.2322C68.67 31.2145 72.6085 34.6841 71.6743 36.2973C70.295 38.6791 69.0878 41.0283 68.1226 43.6107C67.9876 43.9578 67.8628 44.3087 67.7414 44.6605C71.018 44.0738 78.7768 39.9066 82.5476 36.7035ZM75.6464 28.2253C75.0141 30.304 70.9055 27.0282 71.4739 25.1603C72.5313 21.6834 73.9245 18.3654 75.6656 15.1779C76.7774 13.1417 80.7388 16.594 79.8382 18.243C78.0965 21.4308 76.7038 24.7488 75.6464 28.2253ZM159.165 18.5824C159.052 19.7471 157.952 19.8211 157.057 19.3474C152.841 17.1213 148.132 16.6642 143.448 16.3596C138.838 16.0595 134.216 15.9527 129.598 16.0358C129.517 16.0373 129.436 16.0416 129.355 16.043C128.935 16.9739 128.518 17.9072 128.106 18.8428C128.086 18.9047 128.063 18.9651 128.032 19.0226C128.024 19.0371 128.017 19.0511 128.009 19.0652C121.532 33.8271 116.343 49.2075 116.604 65.4956C116.645 68.0638 112.338 65.1621 112.308 63.312C112.168 54.6018 113.544 46.1553 115.829 37.9212C115.728 38.0474 115.633 38.1759 115.533 38.3011C112.593 41.9664 109.38 45.5784 105.606 48.4047C103.781 49.7716 101.282 51.5912 98.851 50.9846C96.092 50.2959 94.6833 47.4632 95.0611 44.8158C95.2721 43.3413 95.7386 41.8933 96.3464 40.484C91.4873 43.0716 87.1822 46.5797 83.5879 50.8995C82.2351 52.5258 79.2593 48.9349 79.6274 47.4875C80.6823 43.3427 82.6495 39.3731 84.7356 35.6562C85.8733 33.6283 89.8248 37.0886 88.908 38.7212C88.8521 38.8198 88.7981 38.9213 88.7427 39.0204C92.3673 36.5251 96.3581 34.5688 100.602 33.237C101.981 32.804 105.148 35.3351 104.217 36.8617C102.832 39.1303 101.492 41.4487 100.451 43.8998C100.18 44.5368 100.02 45.2477 99.8671 45.9528C100.446 45.6352 101.001 45.2694 101.544 44.876C105.371 42.1004 108.615 38.4636 111.574 34.8026C116.226 29.0462 120.192 22.7732 123.694 16.2573C115.967 16.6739 108.278 17.6241 100.675 19.0981C98.7402 19.4732 95.6161 15.3019 97.6182 14.9137C106.891 13.1153 116.295 12.0444 125.736 11.7761C127.44 8.03051 129.205 4.32144 130.963 0.644827C131.952 -1.42181 135.959 1.99032 135.136 3.70989C133.875 6.3453 132.61 8.99896 131.363 11.6712C139.929 11.561 149.423 11.6437 156.976 15.6314C157.897 16.1181 159.279 17.3925 159.163 18.5809L159.165 18.5824ZM97.5416 46.8012C97.5416 46.8084 97.5783 46.8128 97.6322 46.8113C97.5748 46.7814 97.5406 46.7751 97.5416 46.8012ZM99.2241 48.2244C99.1133 48.5328 99.3538 48.3694 99.2636 48.409C99.3114 48.3883 99.2887 48.3191 99.2241 48.2244ZM150.471 36.5727C152.162 35.2615 154.815 38.1174 153.255 39.1386C146.864 43.3215 140.16 48.1261 132.903 50.7144C130.236 51.6655 127.494 51.8483 125.606 49.3231C122.68 45.4069 126.469 39.6559 129.12 36.7367C131.52 34.095 135.775 31.1396 138.957 34.474C143.533 39.2677 132.769 43.4406 129.859 44.8374C129.852 44.8408 129.844 44.8427 129.837 44.8461C129.584 45.4372 129.369 46.0446 129.203 46.6677C134.004 46.037 145.69 40.2782 150.471 36.5727ZM167.708 36.0784C168.24 36.9735 168.078 38.0826 166.945 38.1932C166.089 38.2768 165.278 37.6452 164.676 36.9391C163.596 36.9386 161.235 38.7249 160.64 39.1812C159.459 40.0874 158.373 41.1184 157.359 42.2081C155.12 44.614 153.238 47.3427 151.863 50.332C150.9 52.4247 147.027 49.031 147.69 47.2665C149.485 42.4988 151.417 37.7837 153.151 32.9928C153.778 31.2582 156.699 33.2625 157.289 35.0372C160.975 32.2176 164.916 31.3748 167.708 36.0784Z" fill="#FFE600"/>
</svg>
